#!OML:ASF H:\Terrain\Patient Classification 1\Animal2\Wednesday\Animal2.ASF
:FULLY-SPECIFIED
:DEGREES
273
root 23.3471 16.6955 -28.1561 -0.0240748 -11.9769 -1.1289
lowerback 4.54171 1.49356 3.20059
upperback -2.20152 2.28273 1.79634
thorax -4.77769 1.0593 -0.12908
lowerneck 15.2449 12.7412 17.1862
upperneck -26.4621 16.1738 -26.8354
head -6.33665 9.30621 -13.3759
rclavicle 9.16894e-015 -7.95139e-016
rhumerus -30.9397 12.2193 -85.1717
rradius 111.368
rwrist -18.1908
rhand -22.8354 3.85318
rfingers 7.12502
rthumb 3.60203 -26.0961
lclavicle 9.16894e-015 -7.95139e-016
lhumerus -43.0115 -0.574152 74.7368
lradius 132.347
lwrist 63.676
lhand -25.3838 47.1334
lfingers 7.12502
lthumb 1.14091 77.1101
rfemur 4.20736 6.84137 18.2192
rtibia 33.5693
rfoot -32.9941 -10.9264
rtoes -15.4549
lfemur -28.6099 -1.36544 -7.88545
ltibia 44.6438
lfoot -17.6612 -6.89745
ltoes -36.7157
274
root 23.3485 16.6546 -28.1503 -0.184242 -11.5715 -1.2648
lowerback 5.01133 1.5005 3.19031
upperback -2.22166 2.31734 1.84905
thorax -5.06795 1.0731 -0.0857931
lowerneck 15.3697 12.6961 16.9251
upperneck -26.4544 16.0931 -26.6531
head -6.42866 9.27257 -13.296
rclavicle -1.97045e-014 6.36111e-015
rhumerus -31.8071 11.9117 -85.1534
rradius 111.379
rwrist -18.5315
rhand -22.7364 3.75211
rfingers 7.12502
rthumb 3.69766 -26.1956
lclavicle -1.97045e-014 6.36111e-015
lhumerus -41.6624 -0.686926 74.386
lradius 132.63
lwrist 63.796
lhand -25.618 46.9674
lfingers 7.12502
lthumb 0.914698 76.9452
rfemur 4.1385 6.76922 18.4712
rtibia 34.3621
rfoot -33.2017 -11.4322
rtoes -16.0798
lfemur -28.9504 -1.25739 -7.77687
ltibia 45.3238
lfoot -17.9521 -7.36411
ltoes -36.723
275
root 23.3446 16.6165 -28.1497 -0.338954 -10.975 -1.43364
lowerback 5.39747 1.4684 3.19488
upperback -2.20578 2.29499 1.88655
thorax -5.27337 1.05951 -0.0583611
lowerneck 15.6702 12.5337 16.7765
upperneck -26.6636 15.8607 -26.5691
head -6.63332 9.17018 -13.3303
rclavicle -2.95692e-015 -3.18055e-014
rhumerus -32.5918 11.4107 -85.1221
rradius 111.555
rwrist -18.5697
rhand -22.3062 2.96153
rfingers 7.12502
rthumb 4.11313 -26.9785
lclavicle -2.95692e-015 -3.18055e-014
lhumerus -40.2898 -0.936903 74.0654
lradius 132.859
lwrist 64.1076
lhand -26.1621 46.4808
lfingers 7.12502
lthumb 0.389165 76.4602
rfemur 4.10702 6.62929 18.8229
rtibia 35.127
rfoot -33.616 -11.5601
rtoes -15.4992
lfemur -29.3986 -1.29997 -7.61125
ltibia 46.0274
lfoot -18.2207 -7.88475
ltoes -37.0026
276
root 23.3449 16.5798 -28.1408 -0.47589 -10.3757 -1.42094
lowerback 5.50501 1.4018 3.16816
upperback -2.03922 2.19976 1.81489
thorax -5.1601 1.01488 -0.109597
lowerneck 15.5407 12.4485 16.5911
upperneck -26.8178 15.6874 -26.4074
head -6.73944 9.07546 -13.2635
rclavicle 1.65985e-014 1.59028e-015
rhumerus -33.2545 11.0042 -85.2688
rradius 111.734
rwrist -18.7491
rhand -22.3905 2.76938
rfingers 7.12502
rthumb 4.03165 -27.1722
lclavicle 1.65985e-014 1.59028e-015
lhumerus -38.7491 -0.997283 73.6079
lradius 132.936
lwrist 64.1286
lhand -26.3508 46.2572
lfingers 7.12502
lthumb 0.206934 76.2368
rfemur 4.03926 6.38039 18.9008
rtibia 35.866
rfoot -33.8838 -11.9166
rtoes -15.7804
lfemur -29.8344 -1.58637 -7.64643
ltibia 46.7035
lfoot -18.5104 -8.0884
ltoes -37.2282
277
root 23.3467 16.5425 -28.1241 -0.653617 -9.94501 -1.31473
lowerback 5.6158 1.32689 3.06005
upperback -1.8627 2.08805 1.76212
thorax -5.04236 0.96512 -0.0940803
lowerneck 15.2431 12.4664 16.4338
upperneck -26.7232 15.6616 -26.2897
head -6.69136 9.05382 -13.151
rclavicle -9.91439e-015 -1.74931e-014
rhumerus -33.9748 10.8113 -85.4864
rradius 111.777
rwrist -19.0426
rhand -22.5896 3.21514
rfingers 7.12502
rthumb 3.83942 -26.73
lclavicle -9.91439e-015 -1.74931e-014
lhumerus -37.28 -0.657051 73.0927
lradius 132.762
lwrist 63.4284
lhand -25.1541 46.2422
lfingers 7.12502
lthumb 1.36269 76.2175
rfemur 4.03088 6.25582 18.8415
rtibia 36.5704
rfoot -34.1363 -12.2464
rtoes -16.4545
lfemur -30.1114 -1.71629 -7.80839
ltibia 47.3226
lfoot -18.8214 -8.25599
ltoes -37.6289
278
root 23.3436 16.5067 -28.1108 -0.8281 -9.46821 -1.22336
lowerback 5.75159 1.33249 2.87361
upperback -1.77659 2.08332 1.73529
thorax -5.03472 0.968927 -0.0198359
lowerneck 14.8831 12.368 16.6097
upperneck -26.1885 15.5698 -26.3041
head -6.46019 8.99098 -13.079
rclavicle 3.4017e-014 3.18055e-015
rhumerus -34.8 10.3486 -85.5506
rradius 111.902
rwrist -19.2113
rhand -22.5436 3.25069
rfingers 7.12502
rthumb 3.8838 -26.6937
lclavicle 3.4017e-014 3.18055e-015
lhumerus -35.9409 -0.510195 72.8248
lradius 132.496
lwrist 62.5983
lhand -23.6294 45.8658
lfingers 7.12502
lthumb 2.83528 75.8267
rfemur 4.05701 6.18028 18.8658
rtibia 37.2231
rfoot -34.5944 -12.3378
rtoes -16.5903
lfemur -30.3622 -1.85697 -7.94459
ltibia 47.8702
lfoot -19.122 -8.49791
ltoes -38.3202
279
root 23.3372 16.4717 -28.1009 -0.926861 -8.91537 -1.15401
lowerback 5.7523 1.32541 2.81797
upperback -1.65076 2.06048 1.62776
thorax -4.90164 0.960195 -0.0964898
lowerneck 14.4609 12.2812 16.582
upperneck -25.8146 15.4558 -26.1006
head -6.32156 8.90323 -12.9156
rclavicle -3.77691e-015 2.42517e-014
rhumerus -35.5838 9.77461 -85.7174
rradius 112.106
rwrist -19.381
rhand -22.3264 3.11494
rfingers 7.12502
rthumb 4.09359 -26.8255
lclavicle -3.77691e-015 2.42517e-014
lhumerus -34.4341 -0.365841 72.5622
lradius 132.385
lwrist 62.261
lhand -22.8332 45.6807
lfingers 7.12502
lthumb 3.60415 75.63
rfemur 4.02336 6.03992 18.9547
rtibia 37.839
rfoot -35.021 -12.6304
rtoes -16.8321
lfemur -30.6874 -2.13993 -8.02841
ltibia 48.3685
lfoot -19.3451 -8.69122
ltoes -38.6341
280
root 23.3302 16.4346 -28.0932 -1.1467 -8.43459 -1.13126
lowerback 5.95876 1.37064 2.82706
upperback -1.5376 2.11989 1.48348
thorax -4.89339 0.987845 -0.260912
lowerneck 14.2472 12.1103 16.7578
upperneck -25.6502 15.2707 -25.9615
head -6.27521 8.77631 -12.8631
rclavicle 4.87022e-015 -2.82274e-014
rhumerus -36.6139 9.10848 -85.9746
rradius 112.403
rwrist -19.5891
rhand -22.1964 3.09176
rfingers 7.12502
rthumb 4.21913 -26.8462
lclavicle 4.87022e-015 -2.82274e-014
lhumerus -32.8611 -0.441903 72.3399
lradius 132.271
lwrist 62.3253
lhand -22.6743 45.5803
lfingers 7.12502
lthumb 3.75763 75.5269
rfemur 4.12435 5.8609 19.0752
rtibia 38.4317
rfoot -35.3851 -12.9608
rtoes -16.5996
lfemur -30.8565 -2.3055 -8.07094
ltibia 48.82
lfoot -19.5718 -8.96835
ltoes -38.5895
281
root 23.3215 16.4012 -28.0883 -1.3979 -8.03127 -1.24927
lowerback 6.24719 1.42082 2.91295
upperback -1.47165 2.20237 1.45529
thorax -4.98206 1.0247 -0.353561
lowerneck 14.2515 11.9298 16.8245
upperneck -25.5085 15.0698 -25.835
head -6.28956 8.66011 -12.8288
rclavicle 2.46866e-014 1.07344e-014
rhumerus -37.7263 8.55099 -86.1791
rradius 112.718
rwrist -19.7463
rhand -22.2666 2.83445
rfingers 7.12502
rthumb 4.15133 -27.1048
lclavicle 2.46866e-014 1.07344e-014
lhumerus -31.5026 -0.662788 72.4267
lradius 132.046
lwrist 62.4833
lhand -23.2147 44.8111
lfingers 7.12502
lthumb 3.23575 74.7663
rfemur 4.26143 5.6683 19.3381
rtibia 38.9864
rfoot -35.7283 -13.2019
rtoes -16.451
lfemur -30.9434 -2.31914 -7.95173
ltibia 49.2233
lfoot -19.7044 -9.40641
ltoes -38.4418
282
root 23.3099 16.374 -28.0848 -1.49613 -7.64491 -1.28081
lowerback 6.32194 1.45966 2.87167
upperback -1.4678 2.25352 1.44636
thorax -5.02031 1.05058 -0.347117
lowerneck 14.8049 11.7628 16.537
upperneck -25.9025 14.8436 -25.5964
head -6.62593 8.5614 -12.8304
rclavicle -1.7344e-014 -1.94809e-014
rhumerus -38.7495 8.04906 -86.3313
rradius 112.913
rwrist -19.9406
rhand -22.3087 2.61664
rfingers 7.12502
rthumb 4.11065 -27.3234
lclavicle -1.7344e-014 -1.94809e-014
lhumerus -30.3781 -0.787822 72.6212
lradius 131.892
lwrist 62.4727
lhand -23.5873 44.1247
lfingers 7.12502
lthumb 2.87596 74.085
rfemur 4.23315 5.52394 19.5223
rtibia 39.4656
rfoot -35.9313 -13.3979
rtoes -16.4757
lfemur -31.1721 -2.35999 -7.90367
ltibia 49.5855
lfoot -19.7357 -9.77908
ltoes -38.219
283
root 23.2955 16.3533 -28.0818 -1.50435 -7.28775 -1.16026
lowerback 6.27034 1.49531 2.67362
upperback -1.49435 2.28025 1.37261
thorax -5.02229 1.06857 -0.314501
lowerneck 15.2341 11.6312 16.4063
upperneck -26.1567 14.7032 -25.3633
head -6.86022 8.48799 -12.8192
rclavicle -6.16232e-015 -7.95139e-015
rhumerus -39.712 7.61357 -86.5739
rradius 113.083
rwrist -20.2034
rhand -22.3544 2.46488
rfingers 7.12502
rthumb 4.06655 -27.4761
lclavicle -6.16232e-015 -7.95139e-015
lhumerus -29.3642 -0.769824 72.6881
lradius 131.689
lwrist 62.4873
lhand -23.6206 43.7335
lfingers 7.12502
lthumb 2.84378 73.6943
rfemur 4.11799 5.43455 19.55
rtibia 39.8604
rfoot -36.0275 -13.5281
rtoes -15.502
lfemur -31.4666 -2.44768 -8.0152
ltibia 49.8859
lfoot -19.8747 -9.98297
ltoes -38.4922
